<?xml version="1.0" encoding="UTF-8"?>
<svg version="1.1" xmlns="http://www.w3.org/2000/svg" width="500" height="500">
<path d="M0 0 C-1.98 -0.99 -1.98 -0.99 -4 -2 C-4 -2.66 -4 -3.32 -4 -4 C3.13393752 -3.48462048 10.01812817 -2.55994099 17 -1 C17 0.32 17 1.64 17 3 C17.90621094 3.17015625 18.81242188 3.3403125 19.74609375 3.515625 C26.22085745 4.80372614 32.11148002 6.19545883 38.05078125 9.09375 C40.92608357 10.43056391 43.9502675 11.15285208 47 12 C52.81542642 14.15386164 58.17119721 17.06906984 63 21 C63 21.66 63 22.32 63 23 C63.66 23 64.32 23 65 23 C65.66 22.34 66.32 21.68 67 21 C68.83863505 22.11631414 70.67079723 23.24329627 72.5 24.375 C73.5209375 25.00148437 74.541875 25.62796875 75.59375 26.2734375 C76.78484375 27.12808594 76.78484375 27.12808594 78 28 C78 28.66 78 29.32 78 30 C78.66 30 79.32 30 80 30 C80 30.66 80 31.32 80 32 C79.01 32.495 79.01 32.495 78 33 C78.556875 33.58265625 79.11375 34.1653125 79.6875 34.765625 C88.76391834 44.516642 95.33278329 54.98796458 101 67 C101.515625 68.00546875 102.03125 69.0109375 102.5625 70.046875 C106.37624286 77.71249816 108.48530336 85.21970605 110.23828125 93.54296875 C110.81633927 96.83624268 110.81633927 96.83624268 112 99 C112.15411106 101.0307477 112.24982453 103.06606421 112.31640625 105.1015625 C112.35830078 106.31328125 112.40019531 107.525 112.44335938 108.7734375 C112.48267578 110.04445313 112.52199219 111.31546875 112.5625 112.625 C112.60568359 113.90375 112.64886719 115.1825 112.69335938 116.5 C112.79969886 119.66655348 112.90172833 122.83318753 113 126 C113.33 123.69 113.66 121.38 114 119 C114.99 119.33 115.98 119.66 117 120 C117 124.95 117 129.9 117 135 C117.99 135 118.98 135 120 135 C119.6143354 142.11484687 118.60900601 148.35441866 116 155 C115.01 155 114.02 155 113 155 C112.81824219 155.78503906 112.63648438 156.57007813 112.44921875 157.37890625 C111.05314442 163.21378103 109.49673356 168.55258132 107 174 C106.62691369 175.32276056 106.26953585 176.65232077 106 178 C105.34 178 104.68 178 104 178 C103.896875 178.5775 103.79375 179.155 103.6875 179.75 C102.88350079 182.38127015 101.86932485 183.98688093 100 186 C99.01 186 98.02 186 97 186 C96.87882813 186.73734375 96.75765625 187.4746875 96.6328125 188.234375 C93.80673179 200.58539442 81.80294416 213.50363094 72 221 C71.67 221.66 71.34 222.32 71 223 C70.34 223 69.68 223 69 223 C69 223.66 69 224.32 69 225 C67.3203125 226.7265625 67.3203125 226.7265625 65.125 228.625 C64.40570313 229.25664062 63.68640625 229.88828125 62.9453125 230.5390625 C61 232 61 232 59 232 C59 232.66 59 233.32 59 234 C56.69827287 235.64671436 54.41001458 237.15079779 52 238.625 C51.2795752 239.0686792 50.55915039 239.5123584 49.81689453 239.96948242 C38.12914265 247.05808743 26.10557734 252.99551804 13 257 C12.01 257.3196875 11.02 257.639375 10 257.96875 C-14.5847344 264.60662829 -48.60017315 261.60342739 -70.9375 248.8125 C-73.33984375 247.33203125 -73.33984375 247.33203125 -75 246 C-75 245.34 -75 244.68 -75 244 C-80.28 241.36 -85.56 238.72 -91 236 C-91 235.34 -91 234.68 -91 234 C-91.68449219 233.91621094 -92.36898437 233.83242188 -93.07421875 233.74609375 C-96.73784019 232.81184583 -99.64785941 231.05583549 -102.8125 229.0625 C-103.7087207 228.52206055 -103.7087207 228.52206055 -104.62304688 227.97070312 C-106.12129015 227.04093616 -107.56628564 226.02648071 -109 225 C-109 224.34 -109 223.68 -109 223 C-109.66 223 -110.32 223 -111 223 C-111 222.34 -111 221.68 -111 221 C-111.556875 220.773125 -112.11375 220.54625 -112.6875 220.3125 C-115.67961603 218.61427198 -117.61600535 216.49235804 -120 214 C-121.03833984 212.99259766 -121.03833984 212.99259766 -122.09765625 211.96484375 C-122.82855469 211.25457031 -123.55945313 210.54429687 -124.3125 209.8125 C-125.00988281 209.13832031 -125.70726562 208.46414063 -126.42578125 207.76953125 C-128 206 -128 206 -128 204 C-128.66 204 -129.32 204 -130 204 C-131.40234375 202.20703125 -131.40234375 202.20703125 -132.9375 199.8125 C-133.44152344 199.03519531 -133.94554687 198.25789062 -134.46484375 197.45703125 C-134.97144531 196.64621094 -135.47804687 195.83539063 -136 195 C-136.49757812 194.23300781 -136.99515625 193.46601563 -137.5078125 192.67578125 C-139.35320978 189.36662645 -140.65319572 185.92751052 -141.9375 182.375 C-142.19692383 181.66569336 -142.45634766 180.95638672 -142.72363281 180.22558594 C-143.24357877 178.80362717 -143.76200422 177.38111138 -144.27880859 175.95800781 C-144.89925434 174.2735207 -145.55024743 172.60034149 -146.20703125 170.9296875 C-148.76125297 164.36715528 -150.10190999 157.97674134 -151 151 C-151.11214844 150.21367187 -151.22429687 149.42734375 -151.33984375 148.6171875 C-152.02688411 143.06439557 -152.10066245 137.5252867 -152.125 131.9375 C-152.12967285 131.1741333 -152.1343457 130.4107666 -152.13916016 129.62426758 C-152.12298907 124.12298907 -152.12298907 124.12298907 -151 123 C-150.77329092 121.44246949 -150.60564908 119.87622641 -150.46484375 118.30859375 C-150.33432617 116.89223633 -150.33432617 116.89223633 -150.20117188 115.44726562 C-150.11416016 114.45404297 -150.02714844 113.46082031 -149.9375 112.4375 C-149.84662109 111.44041016 -149.75574219 110.44332031 -149.66210938 109.41601562 C-149.43741186 106.94434298 -149.21689649 104.47236744 -149 102 C-149.33 102 -149.66 102 -150 102 C-150.62593065 94.23846 -148.81042256 89.68555959 -145 83 C-144.32519377 81.6707676 -143.65561482 80.33880223 -143 79 C-142.01 79 -141.02 79 -140 79 C-140.75035741 82.11799003 -141.63363411 85.18070403 -142.5625 88.25 C-142.83191406 89.14203125 -143.10132813 90.0340625 -143.37890625 90.953125 C-143.58386719 91.62859375 -143.78882813 92.3040625 -144 93 C-143.2066145 90.95900065 -142.4153697 88.9171691 -141.625 86.875 C-141.18414062 85.73804688 -140.74328125 84.60109375 -140.2890625 83.4296875 C-139.11545297 80.30717487 -138.03157226 77.17184369 -137 74 C-137.99 74.495 -137.99 74.495 -139 75 C-137.77404214 59.8798531 -125.51904172 46.10844715 -115 36 C-114.34 36 -113.68 36 -113 36 C-113 35.34 -113 34.68 -113 34 C-112.34 34 -111.68 34 -111 34 C-110.7525 33.41734375 -110.505 32.8346875 -110.25 32.234375 C-108.81474554 29.66885764 -107.22336987 28.16275202 -105 26.25 C-103.948125 25.32960937 -103.948125 25.32960937 -102.875 24.390625 C-101 23 -101 23 -99 23 C-99 22.34 -99 21.68 -99 21 C-98.01 21 -97.02 21 -96 21 C-96 20.34 -96 19.68 -96 19 C-68.74815332 -2.36712914 -32.77915736 -6.88743363 0 0 Z M74 35 C74.66 36.32 75.32 37.64 76 39 C76 38.01 76 37.02 76 36 C75.34 35.67 74.68 35.34 74 35 Z M77 39 C77.66 39.66 78.32 40.32 79 41 C79 40.34 79 39.68 79 39 C78.34 39 77.68 39 77 39 Z M-133 64 C-132 66 -132 66 -132 66 Z M-135 68 C-134 70 -134 70 -134 70 Z M-147 96 C-147.33 97.65 -147.66 99.3 -148 101 C-147.34 100.01 -146.68 99.02 -146 98 C-146.33 97.34 -146.66 96.68 -147 96 Z M115 140 C116 144 116 144 116 144 Z M114 146 C115 150 115 150 115 150 Z M102 173 C103 176 103 176 103 176 Z M100 178 C99.67 179.65 99.34 181.3 99 183 C99.66 182.34 100.32 181.68 101 181 C100.67 180.01 100.34 179.02 100 178 Z " fill="#FD3F2A" transform="translate(275,130)"/>
<path d="M0 0 C1.24123878 0.00213753 1.24123878 0.00213753 2.5075531 0.00431824 C3.44514969 0.00124161 4.38274628 -0.00183502 5.34875488 -0.00500488 C6.36336288 0.00218063 7.37797089 0.00936615 8.42332458 0.01676941 C9.9803434 0.01745674 9.9803434 0.01745674 11.56881714 0.01815796 C13.76536704 0.02118233 15.96191476 0.02907411 18.15843201 0.04142761 C21.53391556 0.05968136 24.90912497 0.06193737 28.28465271 0.06169128 C30.41421239 0.06660638 32.5437702 0.07243467 34.67332458 0.07926941 C35.68995682 0.08038223 36.70658905 0.08149506 37.75402832 0.0826416 C38.68847275 0.08902145 39.62291718 0.09540131 40.5856781 0.10197449 C41.41237503 0.10578629 42.23907196 0.10959808 43.09082031 0.11352539 C44.98191833 0.24723816 44.98191833 0.24723816 45.98191833 1.24723816 C46.10521922 3.05691556 46.15982017 4.87131653 46.1872406 6.6849823 C46.21715843 8.42667442 46.21715843 8.42667442 46.24768066 10.20355225 C46.26439316 11.46707016 46.28110565 12.73058807 46.29832458 14.03239441 C46.31910568 15.31835007 46.33988678 16.60430573 46.36129761 17.92922974 C46.4165801 21.3535972 46.46596195 24.77802566 46.5141449 28.20249939 C46.56431498 31.6946813 46.62002444 35.18677426 46.67527771 38.67887878 C46.78293473 45.53492149 46.88436282 52.39104449 46.98191833 59.24723816 C47.64191833 59.24723816 48.30191833 59.24723816 48.98191833 59.24723816 C49.37991638 58.33369568 49.77791443 57.4201532 50.18797302 56.47892761 C54.75765588 46.00377542 59.37056646 35.54819671 64.03562927 25.11515808 C64.84300799 23.30613544 65.64763231 21.49588132 66.44969177 19.68449402 C67.62578966 17.0292706 68.81068204 14.37813339 69.99754333 11.72770691 C70.35382813 10.91843246 70.71011292 10.10915802 71.07719421 9.27536011 C71.41474731 8.52639969 71.75230042 7.77743927 72.1000824 7.00578308 C72.53807159 6.02227119 72.53807159 6.02227119 72.98490906 5.01889038 C74.13225126 2.98010158 75.11957012 1.67598001 76.98191833 0.24723816 C79.15821838 -0.12025452 79.15821838 -0.12025452 81.71287537 -0.10920715 C82.67041718 -0.11220825 83.62795898 -0.11520935 84.61451721 -0.11830139 C85.64583771 -0.10595459 86.6771582 -0.09360779 87.73973083 -0.08088684 C88.79852448 -0.07901367 89.85731812 -0.0771405 90.94819641 -0.07521057 C93.18586883 -0.06848706 95.42352944 -0.05456669 97.66111755 -0.03401184 C101.10019251 -0.00282284 104.53880966 0.00696148 107.97801208 0.01286316 C110.14859063 0.02203143 112.31916449 0.03240664 114.48973083 0.04411316 C115.52509979 0.04836304 116.56046875 0.05261292 117.62721252 0.05699158 C119.05406876 0.07140289 119.05406876 0.07140289 120.50975037 0.08610535 C121.77191879 0.09634735 121.77191879 0.09634735 123.05958557 0.10679626 C124.98191833 0.24723816 124.98191833 0.24723816 125.98191833 1.24723816 C125.5975257 6.8778785 123.95139129 10.93474222 121.35691833 15.80973816 C120.63413612 17.21071484 119.91148254 18.61175791 119.18894958 20.01286316 C118.82237244 20.71475769 118.45579529 21.41665222 118.07810974 22.13981628 C116.36681487 25.42977115 114.70477035 28.7438684 113.04441833 32.05973816 C112.4785199 33.17993347 111.91262146 34.30012878 111.32957458 35.45426941 C109.91632087 38.23158761 109.91632087 38.23158761 108.98191833 41.24723816 C108.32191833 41.24723816 107.66191833 41.24723816 106.98191833 41.24723816 C106.70718689 42.12645935 106.43245544 43.00568054 106.1493988 43.9115448 C105.07001972 46.99551729 103.82064413 49.73114529 102.30223083 52.61833191 C101.78531677 53.60510925 101.26840271 54.5918866 100.73582458 55.60856628 C99.92951599 57.13127136 99.92951599 57.13127136 99.10691833 58.68473816 C98.57711365 59.69600769 98.04730896 60.70727722 97.50144958 61.74919128 C96.9819574 62.73725769 96.46246521 63.7253241 95.92723083 64.74333191 C95.42610779 65.69707703 94.92498474 66.65082214 94.40867615 67.63346863 C93.1960344 69.85498514 91.89839401 71.96439261 90.53660583 74.09489441 C88.66022685 77.8995121 88.71067467 79.2438458 89.98191833 83.24723816 C91.03072283 85.91367791 92.22776399 88.48422664 93.48191833 91.05973816 C93.83504089 91.79893494 94.18816345 92.53813171 94.55198669 93.29972839 C97.43322493 99.26877468 100.54576697 105.10239742 103.69041443 110.93547058 C106.89443036 116.94040764 109.63448234 123.08746059 112.30223083 129.34489441 C113.94925174 133.20491949 115.6986767 137.01104647 117.48191833 140.80973816 C117.90658386 141.72142761 117.90658386 141.72142761 118.33982849 142.65153503 C119.85937205 145.90265149 121.41522758 149.13154491 123.01316833 152.34489441 C123.3425238 153.01899353 123.67187927 153.69309265 124.01121521 154.38761902 C124.64169557 155.6766469 125.28305757 156.96042959 125.93699646 158.23771667 C127.30247894 161.05227467 128.00037393 162.96502134 127.79441833 166.11442566 C126.98191833 168.24723816 126.98191833 168.24723816 124.98191833 169.24723816 C114.87264834 170.49169237 104.59262302 170.37485934 94.4214325 170.42347717 C92.96417792 170.43097204 91.50693616 170.44164265 90.04972839 170.45552063 C87.96971626 170.47347165 85.89012426 170.47754874 83.81004333 170.47770691 C82.59220154 170.4818158 81.37435974 170.48592468 80.11961365 170.49015808 C77.07874151 170.2547342 75.4276546 170.03111644 72.98191833 168.24723816 C71.88523865 166.43132019 71.88523865 166.43132019 71.06004333 164.25505066 C70.75711365 163.46743347 70.45418396 162.67981628 70.14207458 161.86833191 C69.84172302 161.04462097 69.54137146 160.22091003 69.23191833 159.37223816 C68.91609802 158.5562616 68.60027771 157.74028503 68.27488708 156.89958191 C66.81527475 153.02623836 65.98191833 150.46616593 65.98191833 146.24723816 C65.32191833 146.24723816 64.66191833 146.24723816 63.98191833 146.24723816 C63.5275238 144.72356628 63.5275238 144.72356628 63.06394958 143.16911316 C60.79716946 135.67868449 58.35945802 128.40490143 55.25144958 121.21208191 C53.82191955 117.87357947 52.48551341 114.50701224 51.16941833 111.12223816 C50.75047302 110.04716003 50.33152771 108.97208191 49.89988708 107.86442566 C48.98191833 105.24723816 48.98191833 105.24723816 48.98191833 103.24723816 C47.99191833 103.24723816 47.00191833 103.24723816 45.98191833 103.24723816 C45.97161087 104.0423732 45.96130341 104.83750824 45.95068359 105.65673828 C45.85274745 113.1463956 45.75023852 120.63596969 45.64257908 128.12549305 C45.58739067 131.97602298 45.53397721 135.82656057 45.48460388 139.6771698 C45.43690009 143.39249972 45.38455513 147.1077378 45.32897758 150.82295799 C45.30858128 152.2411184 45.28986371 153.65930397 45.27284431 155.07750893 C45.24874028 157.06228537 45.21813973 159.0469797 45.1872406 161.03166199 C45.17169632 162.16195328 45.15615204 163.29224457 45.14013672 164.45678711 C44.98191833 167.24723816 44.98191833 167.24723816 43.98191833 170.24723816 C37.66485832 170.32338476 31.34791695 170.37587848 25.03050232 170.41203308 C22.88201982 170.42710731 20.73356804 170.44757005 18.58518982 170.47355652 C15.49469925 170.5099993 12.40461603 170.52697835 9.31394958 170.54020691 C7.87617912 170.56343269 7.87617912 170.56343269 6.40936279 170.58712769 C2.70708298 170.58805923 -0.53679316 170.37013639 -4.13111877 169.45231628 C-7.49379844 165.52273642 -6.64140287 160.64448455 -6.54151917 155.67301941 C-6.53722397 154.49967041 -6.53292877 153.32632141 -6.52850342 152.11741638 C-6.50783281 148.26423843 -6.4509441 144.41252282 -6.39308167 140.55973816 C-6.3677277 137.87674427 -6.34942388 135.1937106 -6.33033752 132.51066589 C-6.20447131 116.77969281 -5.93114693 101.04819752 -5.44313049 85.32414246 C-5.12755094 74.97902296 -4.94349406 64.63557052 -4.82582283 54.28650475 C-4.79937246 51.97346169 -4.77169049 49.66043643 -4.74365234 47.34741211 C-4.65983045 40.38435111 -4.57964317 33.42138402 -4.519701 26.45807171 C-4.49272035 23.55732194 -4.45770153 20.65670785 -4.42063904 17.75607109 C-4.40495045 16.38726812 -4.39279882 15.01841975 -4.3842926 13.6495533 C-4.37220678 11.76292782 -4.34698212 9.87640005 -4.32106018 7.98991394 C-4.31075272 6.92475555 -4.30044525 5.85959717 -4.28982544 4.76216125 C-3.95024573 1.61943292 -3.23973785 0.39690506 0 0 Z " fill="#FEFCF8" transform="translate(195.01808166503906,170.7527618408203)"/>
<path d="M0 0 C1.23093636 0.00045319 1.23093636 0.00045319 2.48674011 0.00091553 C3.36808121 0.02156067 4.2494223 0.04220581 5.1574707 0.06347656 C6.0632637 0.06913635 6.9690567 0.07479614 7.90229797 0.08062744 C10.79648606 0.1030254 13.68943785 0.15322764 16.58325195 0.20410156 C18.54482262 0.22416216 20.50641268 0.2424137 22.46801758 0.25878906 C27.27773901 0.30290138 32.08653585 0.37195215 36.89575195 0.45410156 C36.89575195 0.78410156 36.89575195 1.11410156 36.89575195 1.45410156 C35.71956299 1.47915771 34.54337402 1.50421387 33.33154297 1.5300293 C28.98360573 1.62392963 24.63583479 1.72419205 20.28808594 1.82641602 C18.40335977 1.8698309 16.5185926 1.911501 14.63378906 1.95141602 C11.93061947 2.00896049 9.22765759 2.0726996 6.5246582 2.13769531 C5.6767421 2.15440781 4.82882599 2.1711203 3.95521545 2.18833923 C0.11283119 1.91819351 0.11283119 1.91819351 -3.10424805 3.45410156 C-3.22278031 5.32780193 -3.27166667 7.2059354 -3.29370117 9.08325195 C-3.31045395 10.29702515 -3.32720673 11.51079834 -3.34446716 12.76135254 C-3.3581846 14.10815389 -3.37186035 15.45495566 -3.38549805 16.80175781 C-3.4032862 18.19242981 -3.42157025 19.58309555 -3.44032288 20.97375488 C-3.47954018 23.93992552 -3.51595001 26.90611144 -3.55007935 29.87234497 C-3.63952404 37.62890137 -3.7450327 45.38524715 -3.8503418 53.14160156 C-3.86057814 53.90757723 -3.87081448 54.67355289 -3.88136101 55.46273994 C-4.0308211 66.57679685 -4.26076811 77.68539629 -4.59915161 88.79537964 C-5.40693443 115.33915952 -5.19669631 141.90111467 -5.10424805 168.45410156 C-2.24933341 170.06550413 -0.15733636 170.7123777 3.11352539 170.77294922 C3.9340741 170.79281891 4.7546228 170.8126886 5.60003662 170.8331604 C6.47621643 170.84471161 7.35239624 170.85626282 8.25512695 170.86816406 C9.159505 170.88753021 10.06388306 170.90689636 10.9956665 170.92684937 C13.87893294 170.98653987 16.76223953 171.03298842 19.64575195 171.07910156 C21.60280043 171.11729103 23.55983228 171.15634333 25.5168457 171.19628906 C30.30967906 171.29223281 35.1025911 171.37630283 39.89575195 171.45410156 C39.89575195 171.78410156 39.89575195 172.11410156 39.89575195 172.45410156 C24.71575195 172.45410156 9.53575195 172.45410156 -6.10424805 172.45410156 C-8.01020653 168.64218461 -8.35365507 167.41470888 -8.34716797 163.38867188 C-8.3502446 162.37951721 -8.35332123 161.37036255 -8.35649109 160.33062744 C-8.34571281 158.69791901 -8.34571281 158.69791901 -8.3347168 157.03222656 C-8.33402946 155.33305084 -8.33402946 155.33305084 -8.33332825 153.59954834 C-8.33030529 151.19542396 -8.32241774 148.79130155 -8.31005859 146.38720703 C-8.29202442 142.7596925 -8.28954758 139.13243711 -8.28979492 135.50488281 C-8.28487036 133.15982858 -8.279038 130.81477605 -8.2722168 128.46972656 C-8.27110397 127.40554504 -8.26999115 126.34136353 -8.2688446 125.24493408 C-8.23372682 119.48184796 -8.00843487 113.77697717 -7.59326172 108.02832031 C-6.94903216 98.78287289 -7.02059162 89.55430275 -7.09021378 80.29106903 C-7.11256895 77.18022993 -7.12642656 74.06945443 -7.13790894 70.95855713 C-7.17122053 62.12739522 -7.21356285 53.29634158 -7.27563477 44.46533203 C-7.31322307 39.03285234 -7.33627759 33.60047503 -7.34994125 28.16788483 C-7.35799159 26.10575722 -7.37159492 24.04364348 -7.39087296 21.98159027 C-7.4172777 19.11259577 -7.42523703 16.24410067 -7.42895508 13.375 C-7.44131195 12.52619766 -7.45366882 11.67739532 -7.46640015 10.8028717 C-7.45501647 7.48095639 -7.33900755 4.92392102 -5.84046936 1.92492676 C-3.72092763 0.12937492 -2.75405815 -0.0338961 0 0 Z " fill="#DC4736" transform="translate(195.104248046875,169.5458984375)"/>
<path d="M0 0 C12.01132686 1.5987055 12.01132686 1.5987055 16 6 C16 6.66 16 7.32 16 8 C16.66 8 17.32 8 18 8 C18.66 7.34 19.32 6.68 20 6 C21.83863505 7.11631414 23.67079723 8.24329627 25.5 9.375 C26.5209375 10.00148437 27.541875 10.62796875 28.59375 11.2734375 C29.3878125 11.84320313 30.181875 12.41296875 31 13 C31 13.66 31 14.32 31 15 C31.66 15 32.32 15 33 15 C33 15.66 33 16.32 33 17 C32.01 17.495 32.01 17.495 31 18 C35.455 22.95 35.455 22.95 40 28 C39.505 29.485 39.505 29.485 39 31 C38.34 30.34 37.68 29.68 37 29 C34.67724823 28.59952556 32.34260643 28.2602896 30 28 C29.731875 26.88625 29.46375 25.7725 29.1875 24.625 C28.34190981 20.78159049 28.34190981 20.78159049 25 19 C23.34450469 18.61500109 21.6777567 18.27206865 20 18 C20 16.02 20 14.04 20 12 C18.68 12 17.36 12 16 12 C16 11.01 16 10.02 16 9 C12.27385847 10.11854586 12.27385847 10.11854586 10 13 C8.35 13 6.7 13 5 13 C4.67 12.01 4.34 11.02 4 10 C2.68 10.33 1.36 10.66 0 11 C-0.85035239 6.93720525 -0.92604802 4.02659396 0 0 Z M30 24 C30.66 24.66 31.32 25.32 32 26 C32 25.34 32 24.68 32 24 C31.34 24 30.68 24 30 24 Z " fill="#FB4029" transform="translate(322,145)"/>
<path d="M0 0 C0.33 0 0.66 0 1 0 C1.33 5.94 1.66 11.88 2 18 C2.33 15.69 2.66 13.38 3 11 C3.99 11.33 4.98 11.66 6 12 C6 16.95 6 21.9 6 27 C6.99 27 7.98 27 9 27 C8.6143354 34.11484687 7.60900601 40.35441866 5 47 C4.01 47 3.02 47 2 47 C1.34 48.98 0.68 50.96 0 53 C-0.33 53 -0.66 53 -1 53 C-1 49.7 -1 46.4 -1 43 C-0.34 43 0.32 43 1 43 C1 41.68 1 40.36 1 39 C-0.32 38.67 -1.64 38.34 -3 38 C-3 35.69 -3 33.38 -3 31 C-2.01 31 -1.02 31 0 31 C0 20.77 0 10.54 0 0 Z M4 32 C5 36 5 36 5 36 Z M3 38 C4 42 4 42 4 42 Z " fill="#802724" transform="translate(386,238)"/>
<path d="M0 0 C0.33 0.66 0.66 1.32 1 2 C0.02107593 3.76206333 -0.96385513 5.52176416 -2.0078125 7.24609375 C-3.07409939 9.13098672 -3.65780123 10.86125771 -4 13 C-4.639375 13.12375 -5.27875 13.2475 -5.9375 13.375 C-6.618125 13.58125 -7.29875 13.7875 -8 14 C-8.33 14.66 -8.66 15.32 -9 16 C-9.66 16 -10.32 16 -11 16 C-10.67 16.66 -10.34 17.32 -10 18 C-9.60342739 22.20366967 -9.57376545 24.33223255 -11.875 27.9375 C-14 30 -14 30 -16 30 C-16.33 32.64 -16.66 35.28 -17 38 C-17.66 38 -18.32 38 -19 38 C-19.33 38.66 -19.66 39.32 -20 40 C-20 38.68 -20 37.36 -20 36 C-20.99 36.495 -20.99 36.495 -22 37 C-20.81361013 22.36785831 -9.50802803 10.24135998 0 0 Z M-16 26 C-15 28 -15 28 -15 28 Z M-18 30 C-17 32 -17 32 -17 32 Z " fill="#CE3E30" transform="translate(158,168)"/>
<path d="M0 0 C1.76462683 3.08809695 2 4.23312136 2 8 C2.639375 8.2475 3.27875 8.495 3.9375 8.75 C6 10 6 10 6.75 12.125 C6.8325 12.74375 6.915 13.3625 7 14 C7.66 14 8.32 14 9 14 C9.99 17.63 10.98 21.26 12 25 C12.99 25 13.98 25 15 25 C15.33 27.31 15.66 29.62 16 32 C16.99 32 17.98 32 19 32 C19.66 32.99 20.32 33.98 21 35 C22.485 35.495 22.485 35.495 24 36 C24.33 35.34 24.66 34.68 25 34 C25.12375 34.969375 25.2475 35.93875 25.375 36.9375 C25.58125 37.948125 25.7875 38.95875 26 40 C26.66 40.33 27.32 40.66 28 41 C28.625 43.5625 28.625 43.5625 29 46 C22.72555921 42.95784689 17.86301995 37.30428531 15 31 C14.34 31 13.68 31 13 31 C11.59765625 29.20703125 11.59765625 29.20703125 10.0625 26.8125 C9.55847656 26.03519531 9.05445313 25.25789063 8.53515625 24.45703125 C8.02855469 23.64621094 7.52195313 22.83539063 7 22 C6.49855469 21.21109375 5.99710938 20.4221875 5.48046875 19.609375 C3.78995823 16.62979445 2.50558972 13.62448215 1.25 10.4375 C0.80140625 9.32246094 0.3528125 8.20742188 -0.109375 7.05859375 C-0.97929621 4.07110119 -1.13522841 2.83114889 0 0 Z " fill="#C23728" transform="translate(132,303)"/>
<path d="M0 0 C1.32 0.33 2.64 0.66 4 1 C4.33 2.32 4.66 3.64 5 5 C4.34 5 3.68 5 3 5 C3 21.5 3 38 3 55 C3.66 55 4.32 55 5 55 C5.66 52.03 6.32 49.06 7 46 C7.99 46.33 8.98 46.66 10 47 C8.02 51.29 6.04 55.58 4 60 C3.01 59.67 2.02 59.34 1 59 C0.67 39.53 0.34 20.06 0 0 Z " fill="#E25D50" transform="translate(240,171)"/>
<path d="M0 0 C1.98 0 3.96 0 6 0 C1.6267408 2.91550614 -3.01515105 4.39377089 -8 6 C-8.94101562 6.30550781 -9.88203125 6.61101562 -10.8515625 6.92578125 C-29.72188045 11.9658282 -52.08065639 10.12854545 -71 6 C-71.99 5.34 -72.98 4.68 -74 4 C-73.06824951 4.09087891 -73.06824951 4.09087891 -72.11767578 4.18359375 C-59.78916164 5.35494901 -47.51359308 6.20672737 -35.125 6.25 C-34.07586426 6.25902344 -33.02672852 6.26804687 -31.94580078 6.27734375 C-25.90855558 6.25424573 -20.27947896 5.68114119 -14.37060547 4.42871094 C-12 4 -12 4 -8 4 C-8 3.34 -8 2.68 -8 2 C-5.36 2 -2.72 2 0 2 C0 1.34 0 0.68 0 0 Z " fill="#AC362A" transform="translate(296,381)"/>
<path d="M0 0 C1.23093636 0.00045319 1.23093636 0.00045319 2.48674011 0.00091553 C3.36808121 0.02156067 4.2494223 0.04220581 5.1574707 0.06347656 C6.0632637 0.06913635 6.9690567 0.07479614 7.90229797 0.08062744 C10.79648606 0.1030254 13.68943785 0.15322764 16.58325195 0.20410156 C18.54482262 0.22416216 20.50641268 0.2424137 22.46801758 0.25878906 C27.27773901 0.30290138 32.08653585 0.37195215 36.89575195 0.45410156 C36.89575195 0.78410156 36.89575195 1.11410156 36.89575195 1.45410156 C35.71956299 1.47915771 34.54337402 1.50421387 33.33154297 1.5300293 C28.98360573 1.62392963 24.63583479 1.72419205 20.28808594 1.82641602 C18.40335977 1.8698309 16.5185926 1.911501 14.63378906 1.95141602 C11.93061947 2.00896049 9.22765759 2.0726996 6.5246582 2.13769531 C5.6767421 2.15440781 4.82882599 2.1711203 3.95521545 2.18833923 C0.11283119 1.91819351 0.11283119 1.91819351 -3.10424805 3.45410156 C-3.22811145 5.53951977 -3.28223872 7.62910298 -3.30957031 9.71801758 C-3.31946991 10.37165283 -3.32936951 11.02528809 -3.33956909 11.69873047 C-3.37126439 13.8684522 -3.39597297 16.03819587 -3.4206543 18.20800781 C-3.44121691 19.70874108 -3.46221319 21.20946846 -3.48362732 22.71018982 C-3.53891959 26.6672185 -3.58829716 30.62430005 -3.63647461 34.5814209 C-3.68663754 38.61650316 -3.74235073 42.65150828 -3.79760742 46.68652344 C-3.90527645 54.60898433 -4.00670183 62.5315096 -4.10424805 70.45410156 C-4.43424805 70.45410156 -4.76424805 70.45410156 -5.10424805 70.45410156 C-5.43523043 61.91844486 -5.74935441 53.38240523 -6.04198742 44.84535599 C-6.17839914 40.88124349 -6.32060417 36.91751599 -6.47607422 32.95410156 C-6.62590493 29.12900242 -6.76048439 25.30364254 -6.88451576 21.47762299 C-6.93450679 20.01820005 -6.9899862 18.55895443 -7.05104637 17.0999527 C-7.1356573 15.05576619 -7.20070672 13.01181866 -7.26123047 10.96679688 C-7.30342209 9.80319641 -7.34561371 8.63959595 -7.38908386 7.44073486 C-6.91400831 2.45935125 -5.11907151 -0.06300396 0 0 Z " fill="#E57C70" transform="translate(195.104248046875,169.5458984375)"/>
<path d="M0 0 C0.95754181 -0.0030011 1.91508362 -0.0060022 2.90164185 -0.00909424 C3.93296234 0.00325256 4.96428284 0.01559937 6.02685547 0.02832031 C7.08564911 0.03019348 8.14444275 0.03206665 9.23532104 0.03399658 C11.47299347 0.0407201 13.71065407 0.05464046 15.94824219 0.07519531 C19.38731714 0.10638432 22.82593429 0.11616864 26.26513672 0.12207031 C28.43571527 0.13123859 30.60628913 0.14161379 32.77685547 0.15332031 C33.81222443 0.15757019 34.84759338 0.16182007 35.91433716 0.16619873 C37.34119339 0.18061005 37.34119339 0.18061005 38.796875 0.1953125 C40.05904343 0.2055545 40.05904343 0.2055545 41.34671021 0.21600342 C43.26904297 0.35644531 43.26904297 0.35644531 44.26904297 1.35644531 C43.66904297 7.95644531 43.66904297 7.95644531 41.26904297 10.35644531 C41.59904297 7.71644531 41.92904297 5.07644531 42.26904297 2.35644531 C26.75904297 2.35644531 11.24904297 2.35644531 -4.73095703 2.35644531 C-5.06095703 5.32644531 -5.39095703 8.29644531 -5.73095703 11.35644531 C-7.38095703 11.68644531 -9.03095703 12.01644531 -10.73095703 12.35644531 C-10.30501115 10.91547945 -9.8646907 9.4787582 -9.41845703 8.04394531 C-9.17482422 7.2434375 -8.93119141 6.44292969 -8.68017578 5.61816406 C-6.80622844 1.15307966 -4.78217361 -0.02068004 0 0 Z " fill="#FEE0D7" transform="translate(276.73095703125,170.6435546875)"/>
<path d="M0 0 C0.99 0 1.98 0 3 0 C4.32 3.3 5.64 6.6 7 10 C6.34 10.66 5.68 11.32 5 12 C4.34 12 3.68 12 3 12 C-0.12357309 18.24714619 0.81608819 27.28992036 0.68359375 34.1640625 C0.66281265 35.08214691 0.64203156 36.00023132 0.62062073 36.94613647 C0.55596044 39.83902516 0.49663454 42.73199364 0.4375 45.625 C0.39423505 47.60287238 0.35061843 49.58073709 0.30664062 51.55859375 C0.20036656 56.37231696 0.09887181 61.18611929 0 66 C-0.66 66 -1.32 66 -2 66 C-1.8924121 57.98520087 -1.77976128 49.97049567 -1.66066074 41.95586014 C-1.60551538 38.23427487 -1.55210898 34.51268163 -1.50268555 30.79101562 C-1.45491804 27.19887329 -1.40257109 23.60682411 -1.34705925 20.0147934 C-1.32669172 18.64490837 -1.30796954 17.27499786 -1.29092598 15.90506744 C-1.26675789 13.9851543 -1.23617775 12.06532512 -1.20532227 10.14550781 C-1.18977798 9.05296692 -1.1742337 7.96042603 -1.15821838 6.83477783 C-1.02195012 4.39327732 -0.70279418 2.33112737 0 0 Z " fill="#DF4C3B" transform="translate(241,274)"/>
<path d="M0 0 C1.7049381 0.96947461 3.40926162 1.940058 5.109375 2.91796875 C6.71073998 3.83445243 8.3229941 4.73186908 9.9375 5.625 C10.618125 6.07875 11.29875 6.5325 12 7 C12 7.66 12 8.32 12 9 C12.66 9 13.32 9 14 9 C14 9.66 14 10.32 14 11 C13.01 11.495 13.01 11.495 12 12 C14.97 15.3 17.94 18.6 21 22 C20.67 22.99 20.34 23.98 20 25 C19.34 24.34 18.68 23.68 18 23 C15.67724823 22.59952556 13.34260643 22.2602896 11 22 C10.5978125 20.329375 10.5978125 20.329375 10.1875 18.625 C9.34190981 14.78159049 9.34190981 14.78159049 6 13 C3.88719655 12.36707617 3.88719655 12.36707617 2 12 C2 11.01 2 10.02 2 9 C2.99 9 3.98 9 5 9 C4.505 8.54625 4.01 8.0925 3.5 7.625 C2 6 2 6 2 4 C1.01 3.67 0.02 3.34 -1 3 C-0.67 2.01 -0.34 1.02 0 0 Z M11 18 C11.66 18.66 12.32 19.32 13 20 C13 19.34 13 18.68 13 18 C12.34 18 11.68 18 11 18 Z " fill="#942A21" transform="translate(341,151)"/>
<path d="M0 0 C2.97922593 -0.02683987 5.95821295 -0.04676037 8.9375 -0.0625 C9.78763672 -0.07087891 10.63777344 -0.07925781 11.51367188 -0.08789062 C12.32255859 -0.09111328 13.13144531 -0.09433594 13.96484375 -0.09765625 C14.7137085 -0.10289307 15.46257324 -0.10812988 16.23413086 -0.11352539 C18 0 18 0 19 1 C19.12330088 2.8096774 19.17790183 4.62407837 19.20532227 6.43774414 C19.22526749 7.59887222 19.24521271 8.76000031 19.26576233 9.95631409 C19.28247482 11.219832 19.29918732 12.48334991 19.31640625 13.78515625 C19.33718735 15.07111191 19.35796844 16.35706757 19.37937927 17.68199158 C19.43466176 21.10635904 19.48404361 24.5307875 19.53222656 27.95526123 C19.58239665 31.44744314 19.6381061 34.9395361 19.69335938 38.43164062 C19.8010164 45.28768333 19.90244449 52.14380633 20 59 C20.66 59 21.32 59 22 59 C22.66 57.35 23.32 55.7 24 54 C24.625 55.8125 24.625 55.8125 25 58 C24.34 58.99 23.68 59.98 23 61 C21.35 60.67 19.7 60.34 18 60 C17.29672275 40.65613473 16.83649117 21.35944577 17 2 C15.94039062 2.02320313 14.88078125 2.04640625 13.7890625 2.0703125 C12.4010487 2.08906944 11.0130273 2.10726972 9.625 2.125 C8.57699219 2.15013672 8.57699219 2.15013672 7.5078125 2.17578125 C5.67102514 2.19344267 3.83398037 2.10303261 2 2 C1.34 1.34 0.68 0.68 0 0 Z " fill="#FEE8E0" transform="translate(222,171)"/>
<path d="M0 0 C1.32 0 2.64 0 4 0 C4.6875 1.5625 4.6875 1.5625 5 4 C4.07175817 6.3627974 3.06902939 8.69747517 2 11 C1.62691369 12.32276056 1.26953585 13.65232077 1 15 C0.34 15 -0.32 15 -1 15 C-1.1546875 15.86625 -1.1546875 15.86625 -1.3125 16.75 C-2.11649921 19.38127015 -3.13067515 20.98688093 -5 23 C-5.99 23 -6.98 23 -8 23 C-8.0825 23.66 -8.165 24.32 -8.25 25 C-9.24759791 28.99039163 -11.07166683 32.38549643 -13 36 C-14 33 -14 33 -13 30 C-12.34 30 -11.68 30 -11 30 C-11.2475 28.7625 -11.495 27.525 -11.75 26.25 C-12.17148674 22.94835384 -12.24282643 22.34689489 -10.25 19.5 C-8 18 -8 18 -5 18 C-4.855625 16.88625 -4.71125 15.7725 -4.5625 14.625 C-4 11 -4 11 -3 9 C-2.46465564 7.46331204 -1.94545728 5.92095694 -1.4375 4.375 C-1.16808594 3.55773437 -0.89867187 2.74046875 -0.62109375 1.8984375 C-0.41613281 1.27195312 -0.21117187 0.64546875 0 0 Z " fill="#AD3124" transform="translate(380,293)"/>
<path d="M0 0 C1.17781058 3.68065805 1 7.1644081 1 11 C1.33 11.99 1.66 12.98 2 14 C2.66 14 3.32 14 4 14 C4 19.28 4 24.56 4 30 C2 28 2 28 1.8046875 25.1796875 C1.82789063 24.08914062 1.85109375 22.99859375 1.875 21.875 C1.89304688 20.77929688 1.91109375 19.68359375 1.9296875 18.5546875 C1.95289063 17.71164063 1.97609375 16.86859375 2 16 C1.34 16 0.68 16 0 16 C0.020625 16.94875 0.04125 17.8975 0.0625 18.875 C0 22 0 22 -1 24 C-1.15378852 25.95774069 -1.24971463 27.92017352 -1.31640625 29.8828125 C-1.35830078 31.04941406 -1.40019531 32.21601563 -1.44335938 33.41796875 C-1.48267578 34.64128906 -1.52199219 35.86460937 -1.5625 37.125 C-1.60568359 38.35605469 -1.64886719 39.58710938 -1.69335938 40.85546875 C-1.79968704 43.90352853 -1.90171781 46.9516719 -2 50 C-2.33 50 -2.66 50 -3 50 C-3.80956497 43.62467586 -4.10884373 37.35625277 -4.125 30.9375 C-4.12951172 30.1751001 -4.13402344 29.4127002 -4.13867188 28.62719727 C-4.12375909 23.12375909 -4.12375909 23.12375909 -3 22 C-2.78614739 20.62369507 -2.62972874 19.23832803 -2.5 17.8515625 C-2.4175 17.01109375 -2.335 16.170625 -2.25 15.3046875 C-2.1675 14.42039063 -2.085 13.53609375 -2 12.625 C-1.83649136 10.88772071 -1.66994849 9.15072364 -1.5 7.4140625 C-1.4278125 6.6401416 -1.355625 5.8662207 -1.28125 5.06884766 C-1 3 -1 3 0 0 Z " fill="#B53124" transform="translate(127,231)"/>
<path d="M0 0 C16.83 0 33.66 0 51 0 C51 0.66 51 1.32 51 2 C50.40753479 1.99920441 49.81506958 1.99840881 49.20465088 1.99758911 C43.0398743 1.99515197 36.87635839 2.03430484 30.71191406 2.09765625 C28.4111924 2.11582838 26.11036143 2.12338257 23.80957031 2.12011719 C20.50239294 2.11726371 17.19748802 2.15254294 13.890625 2.1953125 C12.86132874 2.18621857 11.83203247 2.17712463 10.77154541 2.16775513 C8.05042585 2.22317932 5.63778963 2.32843962 3 3 C0.32847498 5.7112181 0.32847498 5.7112181 -1 9 C-1.66 9.99 -2.32 10.98 -3 12 C-2.67 8.7 -2.34 5.4 -2 2 C-1.34 2 -0.68 2 0 2 C0 1.34 0 0.68 0 0 Z " fill="#E24F3F" transform="translate(269,169)"/>
<path d="M0 0 C0.33 0 0.66 0 1 0 C1.33 5.94 1.66 11.88 2 18 C2.66 18 3.32 18 4 18 C4.05437005 20.85442753 4.09384974 23.70780076 4.125 26.5625 C4.15013672 27.76229492 4.15013672 27.76229492 4.17578125 28.98632812 C4.21723982 34.06500335 3.64056075 38.18811906 2 43 C1.67 41.68 1.34 40.36 1 39 C-0.32 38.67 -1.64 38.34 -3 38 C-3 35.69 -3 33.38 -3 31 C-2.01 31 -1.02 31 0 31 C0 20.77 0 10.54 0 0 Z " fill="#D64637" transform="translate(386,238)"/>
<path d="M0 0 C7.13393752 0.51537952 14.01812817 1.44005901 21 3 C21 4.32 21 5.64 21 7 C20.01 7.66 19.02 8.32 18 9 C17.67 8.01 17.34 7.02 17 6 C11.39 6 5.78 6 0 6 C-0.33 5.34 -0.66 4.68 -1 4 C0.65 4 2.3 4 4 4 C2.68 3.34 1.36 2.68 0 2 C0 1.34 0 0.68 0 0 Z " fill="#822A24" transform="translate(271,126)"/>
<path d="M0 0 C0.33 0 0.66 0 1 0 C1.33 11.22 1.66 22.44 2 34 C5.53118691 35.76559345 6.58183085 36.25151539 10.21777344 36.31884766 C11.03832214 36.33871735 11.85887085 36.35858704 12.70428467 36.37905884 C13.58046448 36.39061005 14.45664429 36.40216125 15.359375 36.4140625 C16.71594208 36.44311172 16.71594208 36.44311172 18.09991455 36.4727478 C20.98318099 36.53243831 23.86648758 36.57888686 26.75 36.625 C28.70704848 36.66318947 30.66408033 36.70224177 32.62109375 36.7421875 C37.41392711 36.83813125 42.20683915 36.92220127 47 37 C47 37.33 47 37.66 47 38 C31.82 38 16.64 38 1 38 C-0.58645357 34.82709287 -0.12078213 31.41174616 -0.09765625 27.9296875 C-0.0962413 27.13345978 -0.09482635 26.33723206 -0.09336853 25.51687622 C-0.08776345 22.9695462 -0.07521014 20.42230353 -0.0625 17.875 C-0.05748565 16.14974085 -0.05292263 14.42448033 -0.04882812 12.69921875 C-0.03779237 8.46611209 -0.02052436 4.23307086 0 0 Z " fill="#DE675A" transform="translate(188,304)"/>
<path d="M0 0 C0.99 0 1.98 0 3 0 C2.05695727 3.94613026 0.83707899 7.79111232 -0.37890625 11.66015625 C-1.12827888 14.07978561 -1.12827888 14.07978561 -1 17 C-2 19.1875 -2 19.1875 -3 21 C-3.33 20.01 -3.66 19.02 -4 18 C-4.99 20.475 -4.99 20.475 -6 23 C-6.33 23 -6.66 23 -7 23 C-7.62593065 15.23846 -5.81042256 10.68555959 -2 4 C-1.32519377 2.6707676 -0.65561482 1.33880223 0 0 Z " fill="#812A27" transform="translate(132,209)"/>
<path d="M0 0 C0.33 0.99 0.66 1.98 1 3 C1.66 3 2.32 3 3 3 C2.34 4.98 1.68 6.96 1 9 C0.34 9 -0.32 9 -1 9 C-1.144375 9.86625 -1.28875 10.7325 -1.4375 11.625 C-1.95833333 14.75 -2.47916667 17.875 -3 21 C-3.66 21 -4.32 21 -5 21 C-5.33 21.66 -5.66 22.32 -6 23 C-6 21.68 -6 20.36 -6 19 C-6.66 19.33 -7.32 19.66 -8 20 C-7.4169058 12.80850485 -3.95903043 5.93854564 0 0 Z M-4 13 C-3 15 -3 15 -3 15 Z " fill="#7A2623" transform="translate(144,185)"/>
<path d="M0 0 C0.99 0 1.98 0 3 0 C3.61875 1.4540625 3.61875 1.4540625 4.25 2.9375 C5.53134636 5.92120653 6.82121027 8.90102707 8.125 11.875 C8.45757812 12.63554687 8.79015625 13.39609375 9.1328125 14.1796875 C9.86374602 15.97516363 9.86374602 15.97516363 11 17 C10.30232558 23.39534884 10.30232558 23.39534884 9 26 C2.73 25.67 -3.54 25.34 -10 25 C-10 24.67 -10 24.34 -10 24 C-8.86820312 23.93941406 -7.73640625 23.87882812 -6.5703125 23.81640625 C-5.08852855 23.73200083 -3.6067584 23.64735283 -2.125 23.5625 C-1.37863281 23.52318359 -0.63226563 23.48386719 0.13671875 23.44335938 C4.19986864 23.28426376 4.19986864 23.28426376 8 22 C7.42673977 16.80836155 5.71248715 12.80504818 3.4375 8.1875 C0 1.09050881 0 1.09050881 0 0 Z " fill="#E64F42" transform="translate(314,316)"/>
<path d="M0 0 C1.32 0 2.64 0 4 0 C4 0.99 4 1.98 4 3 C5.093125 3.103125 6.18625 3.20625 7.3125 3.3125 C11.25812078 4.04812421 11.44771784 4.34354306 14 7 C16.03232242 8.19599068 16.03232242 8.19599068 18.1875 9.1875 C18.90292969 9.53167969 19.61835938 9.87585938 20.35546875 10.23046875 C21.16951172 10.61138672 21.16951172 10.61138672 22 11 C16.99262804 12.66912399 12.68571 10.03089876 8 8 C2.26369159 5.06910492 2.26369159 5.06910492 0 3 C0 2.01 0 1.02 0 0 Z " fill="#982B21" transform="translate(200,373)"/>
<path d="M0 0 C0.66 0 1.32 0 2 0 C1.67 1.65 1.34 3.3 1 5 C-0.65 5.33 -2.3 5.66 -4 6 C-4 6.66 -4 7.32 -4 8 C-4.66 8 -5.32 8 -6 8 C-6.226875 8.598125 -6.45375 9.19625 -6.6875 9.8125 C-8.35609042 12.59348403 -10.1283832 13.5641916 -13 15 C-13.66 15 -14.32 15 -15 15 C-13.5611898 11.612801 -11.77880501 9.6405896 -9 7.25 C-8.29875 6.63640625 -7.5975 6.0228125 -6.875 5.390625 C-5 4 -5 4 -3 4 C-3 3.34 -3 2.68 -3 2 C-2.01 2 -1.02 2 0 2 C0 1.34 0 0.68 0 0 Z " fill="#BB3729" transform="translate(179,149)"/>
<path d="M0 0 C1.7049381 0.96947461 3.40926162 1.940058 5.109375 2.91796875 C6.71073998 3.83445243 8.3229941 4.73186908 9.9375 5.625 C10.618125 6.07875 11.29875 6.5325 12 7 C12 7.66 12 8.32 12 9 C12.66 9 13.32 9 14 9 C14 9.66 14 10.32 14 11 C9.33174173 11.70731186 6.96719769 9.92277529 3.35546875 7.2890625 C2.90816406 6.86367187 2.46085937 6.43828125 2 6 C2 5.34 2 4.68 2 4 C1.01 3.67 0.02 3.34 -1 3 C-0.67 2.01 -0.34 1.02 0 0 Z " fill="#702521" transform="translate(341,151)"/>
<path d="M0 0 C2 3 2 3 2 5 C5.7513465 6.17125374 9.49631612 6.22059865 13.390625 6.31640625 C14.09523865 6.33718735 14.79985229 6.35796844 15.52581787 6.37937927 C17.76711681 6.44453837 20.00852864 6.50360248 22.25 6.5625 C23.77344897 6.60571726 25.29688671 6.64933257 26.8203125 6.69335938 C30.54675591 6.80018491 34.27332494 6.90154639 38 7 C38 7.33 38 7.66 38 8 C25.79 8 13.58 8 1 8 C0.67 5.36 0.34 2.72 0 0 Z " fill="#D95B4E" transform="translate(266,334)"/>
<path d="M0 0 C-0.89307861 0.08302368 -0.89307861 0.08302368 -1.80419922 0.16772461 C-4.49487215 0.42018865 -7.18492286 0.67876816 -9.875 0.9375 C-10.81214844 1.02451172 -11.74929687 1.11152344 -12.71484375 1.20117188 C-13.61074219 1.28818359 -14.50664062 1.37519531 -15.4296875 1.46484375 C-16.67081299 1.58267212 -16.67081299 1.58267212 -17.93701172 1.70288086 C-20.0581666 1.89777363 -20.0581666 1.89777363 -22 3 C-24.204364 3.22950319 -26.41392173 3.41075933 -28.625 3.5625 C-29.81351563 3.64628906 -31.00203125 3.73007813 -32.2265625 3.81640625 C-33.14179688 3.87699219 -34.05703125 3.93757812 -35 4 C-30.02430807 -0.97569193 -19.86959633 -0.46245923 -13.125 -1.25 C-12.29234619 -1.35441406 -11.45969238 -1.45882812 -10.60180664 -1.56640625 C-9.80766357 -1.65277344 -9.01352051 -1.73914063 -8.1953125 -1.828125 C-7.12821045 -1.9504248 -7.12821045 -1.9504248 -6.03955078 -2.07519531 C-3.59250916 -1.9849764 -2.09753085 -1.21997439 0 0 Z " fill="#8C2B23" transform="translate(253,128)"/>
<path d="M0 0 C1.32 0.66 2.64 1.32 4 2 C4.38347912 5.35544232 4.27514436 6.63946602 2.1875 9.375 C1.465625 10.24125 0.74375 11.1075 0 12 C-1.14497485 14.2947404 -2.06212253 16.60841244 -3 19 C-3.99 18.67 -4.98 18.34 -6 18 C-5.566875 17.20335937 -5.13375 16.40671875 -4.6875 15.5859375 C-4.130625 14.52632812 -3.57375 13.46671875 -3 12.375 C-2.443125 11.33085937 -1.88625 10.28671875 -1.3125 9.2109375 C0.0578255 5.85853405 0.2580505 3.58045064 0 0 Z " fill="#E35543" transform="translate(320,171)"/>
<path d="M0 0 C0.33 0 0.66 0 1 0 C1 1.65 1 3.3 1 5 C0.34 5 -0.32 5 -1 5 C-1.1546875 6.0828125 -1.1546875 6.0828125 -1.3125 7.1875 C-2.07622524 10.31183051 -3.29160418 12.27922147 -5 15 C-6.37302304 17.64726745 -7.69035949 20.32088768 -9 23 C-9.66 23 -10.32 23 -11 23 C-11 23.99 -11 24.98 -11 26 C-11.66 25.67 -12.32 25.34 -13 25 C-8.83871581 16.5666282 -4.57835962 8.21756854 0 0 Z " fill="#E25343" transform="translate(298,220)"/>
<path d="M0 0 C6.75 2.5 6.75 2.5 9 7 C5.37 7 1.74 7 -2 7 C-1.34 4.69 -0.68 2.38 0 0 Z " fill="#C33C2E" transform="translate(329,146)"/>
<path d="M0 0 C-5.33036814 2.96131563 -10.02684905 3.10961004 -16.05078125 2.87890625 C-16.70958786 2.85529526 -17.36839447 2.83168427 -18.04716492 2.80735779 C-20.13585822 2.73124327 -22.22413074 2.64699771 -24.3125 2.5625 C-25.73500597 2.50922687 -27.15753201 2.45648689 -28.58007812 2.40429688 C-32.05363909 2.27570006 -35.52687034 2.13981289 -39 2 C-39 1.67 -39 1.34 -39 1 C-34.89240131 0.85559073 -30.78473596 0.71326278 -26.67700195 0.57275391 C-25.2834281 0.52480505 -23.88987274 0.47631538 -22.49633789 0.42724609 C-14.99551191 0.16349261 -7.5064086 -0.06650196 0 0 Z " fill="#EB4331" transform="translate(313,341)"/>
<path d="M0 0 C0.33 0 0.66 0 1 0 C1.33 11.88 1.66 23.76 2 36 C1.01 36 0.02 36 -1 36 C-0.67 24.12 -0.34 12.24 0 0 Z " fill="#7D1F19" transform="translate(386,238)"/>
<path d="M0 0 C0.66 0 1.32 0 2 0 C2.66 0.99 3.32 1.98 4 3 C4.99 3.33 5.98 3.66 7 4 C7.33 3.34 7.66 2.68 8 2 C8.12375 2.969375 8.2475 3.93875 8.375 4.9375 C8.58125 5.948125 8.7875 6.95875 9 8 C9.66 8.33 10.32 8.66 11 9 C11.625 11.5625 11.625 11.5625 12 14 C7.29897072 11.64948536 3.93463446 8.31837032 1 4 C0.328125 1.77734375 0.328125 1.77734375 0 0 Z " fill="#CC3C2D" transform="translate(149,335)"/>
<path d="M0 0 C2.31 0 4.62 0 7 0 C3.66248862 2.66343273 0.11898148 4.70475504 -3.625 6.75 C-4.77226562 7.38421875 -5.91953125 8.0184375 -7.1015625 8.671875 C-8.05804688 9.11015625 -9.01453125 9.5484375 -10 10 C-10.66 9.67 -11.32 9.34 -12 9 C-11.67 7.68 -11.34 6.36 -11 5 C-9.35 5.33 -7.7 5.66 -6 6 C-6 5.34 -6 4.68 -6 4 C-4.68 4 -3.36 4 -2 4 C-2 3.34 -2 2.68 -2 2 C-1.34 2 -0.68 2 0 2 C0 1.34 0 0.68 0 0 Z " fill="#B1372B" transform="translate(315,371)"/>
<path d="M0 0 C3.96 0 7.92 0 12 0 C12 0.66 12 1.32 12 2 C12.99 2 13.98 2 15 2 C15 2.66 15 3.32 15 4 C15.99 4.33 16.98 4.66 18 5 C18 5.66 18 6.32 18 7 C17.01 7 16.02 7 15 7 C14.67 7.99 14.34 8.98 14 10 C14 8.02 14 6.04 14 4 C12.68 4 11.36 4 10 4 C10 3.01 10 2.02 10 1 C8.63875 1.556875 8.63875 1.556875 7.25 2.125 C4 3 4 3 1.625 2.125 C1.08875 1.75375 0.5525 1.3825 0 1 C0 0.67 0 0.34 0 0 Z " fill="#E34332" transform="translate(328,153)"/>
<path d="M0 0 C0 0.99 0 1.98 0 3 C-11.52164009 6.44419134 -11.52164009 6.44419134 -17 6 C-12.34234228 1.74735599 -6.18257992 0 0 0 Z " fill="#D03C2F" transform="translate(218,132)"/>
<path d="M0 0 C2.44814179 3.0296652 4.09452853 6.07549599 5.6875 9.625 C6.12449219 10.58664063 6.56148438 11.54828125 7.01171875 12.5390625 C8 15 8 15 8 17 C7.01 17.33 6.02 17.66 5 18 C4.34 15.03 3.68 12.06 3 9 C2.01 9 1.02 9 0 9 C0 6.03 0 3.06 0 0 Z " fill="#BA352A" transform="translate(372,190)"/>
<path d="M0 0 C0.33 0 0.66 0 1 0 C1.06058594 0.75925781 1.12117187 1.51851563 1.18359375 2.30078125 C1.26738281 3.29464844 1.35117188 4.28851563 1.4375 5.3125 C1.51871094 6.29863281 1.59992188 7.28476562 1.68359375 8.30078125 C1.91812559 11.09375599 1.91812559 11.09375599 3 14 C9.93 14.33 16.86 14.66 24 15 C24 15.33 24 15.66 24 16 C20.93696422 16.08115993 17.87609185 16.14057409 14.8125 16.1875 C13.94818359 16.21263672 13.08386719 16.23777344 12.19335938 16.26367188 C8.4167724 16.30708092 5.49129936 16.17369169 1.90625 14.90625 C0 13 0 13 -0.48828125 9.86328125 C-0.43027344 8.69152344 -0.37226563 7.51976562 -0.3125 6.3125 C-0.26738281 5.13300781 -0.22226563 3.95351563 -0.17578125 2.73828125 C-0.11777344 1.83464844 -0.05976563 0.93101562 0 0 Z " fill="#FEC8C0" transform="translate(189,325)"/>
<path d="M0 0 C0.99 0.33 1.98 0.66 3 1 C3 8.92 3 16.84 3 25 C1.15555733 21.31111465 0.72875554 19.91931805 0.5859375 16.015625 C0.54726563 15.08105469 0.50859375 14.14648438 0.46875 13.18359375 C0.4378125 12.21550781 0.406875 11.24742187 0.375 10.25 C0.33632813 9.26644531 0.29765625 8.28289062 0.2578125 7.26953125 C0.16371574 4.84653963 0.07807672 2.42355204 0 0 Z " fill="#6A1F1D" transform="translate(389,249)"/>
<path d="M0 0 C0.68707031 0.08378906 1.37414062 0.16757812 2.08203125 0.25390625 C3.43361328 0.40666016 3.43361328 0.40666016 4.8125 0.5625 C5.70582031 0.66691406 6.59914062 0.77132813 7.51953125 0.87890625 C10.13375572 1.15658709 10.13375572 1.15658709 13 0 C13 0.99 13 1.98 13 3 C14.32 3.66 15.64 4.32 17 5 C17 5.66 17 6.32 17 7 C14.69 6.34 12.38 5.68 10 5 C10 4.34 10 3.68 10 3 C9.36191406 2.95101563 8.72382813 2.90203125 8.06640625 2.8515625 C7.24011719 2.77679688 6.41382813 2.70203125 5.5625 2.625 C4.73878906 2.55539062 3.91507813 2.48578125 3.06640625 2.4140625 C2.38449219 2.27742188 1.70257813 2.14078125 1 2 C0.67 1.34 0.34 0.68 0 0 Z " fill="#D8402D" transform="translate(194,370)"/>
<path d="M0 0 C3.2542015 2.83430453 4.5206753 4.68607774 5 9 C4.01 9.66 3.02 10.32 2 11 C0.4375 10 0.4375 10 -1 8 C-0.96726452 5.23385218 -0.49404328 2.73969453 0 0 Z " fill="#DA3D29" transform="translate(347,164)"/>
<path d="M0 0 C8.25 0.66 16.5 1.32 25 2 C24.67 2.66 24.34 3.32 24 4 C18.26861756 4.15490223 13.10650794 3.65244885 7.5 2.5 C6.77296875 2.35691406 6.0459375 2.21382813 5.296875 2.06640625 C3.52990929 1.71766302 1.76474691 1.35980277 0 1 C0 0.67 0 0.34 0 0 Z " fill="#8C251B" transform="translate(222,385)"/>
<path d="M0 0 C0.1875 2.375 0.1875 2.375 0 5 C-0.99 5.66 -1.98 6.32 -3 7 C-3 6.34 -3 5.68 -3 5 C-3.66 5 -4.32 5 -5 5 C-5.33 6.98 -5.66 8.96 -6 11 C-6.66 9.68 -7.32 8.36 -8 7 C-7.34 7 -6.68 7 -6 7 C-6 5.35 -6 3.7 -6 2 C-2.25 0 -2.25 0 0 0 Z " fill="#E94232" transform="translate(385,288)"/>
<path d="M0 0 C1.69953157 1.00909687 3.35542486 2.09111657 5 3.1875 C5 4.1775 5 5.1675 5 6.1875 C1.58978257 5.40052675 -1.68885166 4.31630057 -5 3.1875 C-5 2.1975 -5 1.2075 -5 0.1875 C-2 -0.8125 -2 -0.8125 0 0 Z " fill="#A3312B" transform="translate(348,159.8125)"/>
<path d="M0 0 C1.55535498 4.66606494 -0.23559738 8.53207724 -2 13 C-4.1875 16.125 -4.1875 16.125 -6 18 C-5.67 16.02 -5.34 14.04 -5 12 C-4.34 12 -3.68 12 -3 12 C-3.37125 10.14375 -3.37125 10.14375 -3.75 8.25 C-4.04296875 6.046875 -4.04296875 6.046875 -4 4 C-2.0625 1.5 -2.0625 1.5 0 0 Z " fill="#B3342A" transform="translate(372,311)"/>
<path d="M0 0 C1.39211215 4.17633644 -0.0464421 5.78960515 -1.9375 9.6875 C-2.50339844 10.86699219 -3.06929687 12.04648438 -3.65234375 13.26171875 C-4.09707031 14.16535156 -4.54179687 15.06898438 -5 16 C-5.66 16 -6.32 16 -7 16 C-6.57901173 10.63239961 -5.56468445 7.99676742 -2 4 C-1.29114106 2.68861096 -0.60543548 1.36222983 0 0 Z " fill="#E34E40" transform="translate(256,200)"/>
<path d="M0 0 C3 1 3 1 4 3 C4.99 3 5.98 3 7 3 C7.99 6.3 8.98 9.6 10 13 C9.01 12.34 8.02 11.68 7 11 C7 10.34 7 9.68 7 9 C6.34 9 5.68 9 5 9 C3.7109375 7.5390625 3.7109375 7.5390625 2.375 5.625 C1.92898437 4.99851562 1.48296875 4.37203125 1.0234375 3.7265625 C0 2 0 2 0 0 Z " fill="#B1352C" transform="translate(140,325)"/>
<path d="M0 0 C1.93080096 0.3701689 3.84605707 0.82258298 5.75 1.3125 C6.79671875 1.57675781 7.8434375 1.84101563 8.921875 2.11328125 C11.70992325 2.91643728 14.33118941 3.86822662 17 5 C17 5.33 17 5.66 17 6 C15.33388095 6.042721 13.66617115 6.04063832 12 6 C11.67 5.67 11.34 5.34 11 5 C8.31455654 4.43725235 5.63746613 3.91938977 2.9375 3.4375 C2.17888672 3.29892578 1.42027344 3.16035156 0.63867188 3.01757812 C-1.24024975 2.67488173 -3.12004701 2.3369927 -5 2 C-4.360625 1.855625 -3.72125 1.71125 -3.0625 1.5625 C-1.02454854 1.18992819 -1.02454854 1.18992819 0 0 Z " fill="#A22E26" transform="translate(309,138)"/>
<path d="M0 0 C2 1 2 1 3.0703125 3.6171875 C3.41835938 4.69226563 3.76640625 5.76734375 4.125 6.875 C4.47820312 7.94492187 4.83140625 9.01484375 5.1953125 10.1171875 C6 13 6 13 6 16 C5.34 16 4.68 16 4 16 C2.50178941 12.62902617 2 10.79557881 2 7 C1.34 7 0.68 7 0 7 C0 4.69 0 2.38 0 0 Z " fill="#E15A4A" transform="translate(253,300)"/>
<path d="M0 0 C2 1 2 1 3.125 3.625 C4.05654649 7.21810788 4.14783375 10.30415624 4 14 C4.66 14 5.32 14 6 14 C6 15.65 6 17.3 6 19 C3.63201169 16.12790213 2.35167408 13.63088082 1.3125 10.0625 C1.06113281 9.22847656 0.80976562 8.39445312 0.55078125 7.53515625 C-0.0121497 4.94407689 -0.09927943 2.64272387 0 0 Z " fill="#A23025" transform="translate(125,285)"/>
<path d="M0 0 C0.99 0.33 1.98 0.66 3 1 C1.02 5.29 -0.96 9.58 -3 14 C-3.66 14 -4.32 14 -5 14 C-5 12.35 -5 10.7 -5 9 C-4.01 9 -3.02 9 -2 9 C-1.34 6.03 -0.68 3.06 0 0 Z " fill="#E15044" transform="translate(247,217)"/>
<path d="M0 0 C1.5625 1.6875 1.5625 1.6875 3 4 C2.8125 6.6875 2.8125 6.6875 2 9 C-0.76452033 10.38226016 -3.0461363 10.09525387 -6.125 10.0625 C-7.22070312 10.05347656 -8.31640625 10.04445313 -9.4453125 10.03515625 C-10.70988281 10.01775391 -10.70988281 10.01775391 -12 10 C-12 9.67 -12 9.34 -12 9 C-6.555 8.505 -6.555 8.505 -1 8 C0.16169042 4.0404226 0.16169042 4.0404226 0 0 Z " fill="#FDD4C9" transform="translate(320,330)"/>
<path d="M0 0 C1.9507829 2.92617435 2.71513462 5.02044581 3.625 8.375 C3.88539063 9.31085938 4.14578125 10.24671875 4.4140625 11.2109375 C4.97925133 13.90123635 5.10954217 16.26144571 5 19 C1.89013695 14.33520542 0.70896388 11.93422526 0.375 6.3125 C0.30023438 5.13300781 0.22546875 3.95351562 0.1484375 2.73828125 C0.09945313 1.83464844 0.05046875 0.93101562 0 0 Z " fill="#972B23" transform="translate(380,207)"/>
<path d="M0 0 C2.125 0.375 2.125 0.375 4 1 C3.01 1 2.02 1 1 1 C0.67 3.97 0.34 6.94 0 10 C-1.65 10.33 -3.3 10.66 -5 11 C-4.54917531 9.53932801 -4.08906463 8.08151968 -3.625 6.625 C-3.36976563 5.81289062 -3.11453125 5.00078125 -2.8515625 4.1640625 C-2 2 -2 2 0 0 Z " fill="#FDE4DD" transform="translate(271,172)"/>
<path d="M0 0 C4.51617599 -0.07654536 8.59085217 -0.10228696 13 1 C13 1.66 13 2.32 13 3 C11.39592672 3.02708567 9.7917215 3.04643483 8.1875 3.0625 C6.84751953 3.07990234 6.84751953 3.07990234 5.48046875 3.09765625 C3 3 3 3 0 2 C0 1.34 0 0.68 0 0 Z " fill="#492024" transform="translate(255,124)"/>
<path d="M0 0 C1.98 0 3.96 0 6 0 C0.21012355 3.85991763 -5.06746106 5.43328368 -12 5 C-10.68 4.67 -9.36 4.34 -8 4 C-8 3.34 -8 2.68 -8 2 C-5.36 2 -2.72 2 0 2 C0 1.34 0 0.68 0 0 Z " fill="#A8312A" transform="translate(296,381)"/>
<path d="M0 0 C0.33 0.99 0.66 1.98 1 3 C-0.4117783 3.53394179 -1.82970244 4.05165104 -3.25 4.5625 C-4.03890625 4.85253906 -4.8278125 5.14257812 -5.640625 5.44140625 C-8.19103452 6.04522837 -9.55322229 5.8473932 -12 5 C-10.37750059 4.16180842 -8.75191503 3.3295884 -7.125 2.5 C-6.22007812 2.0359375 -5.31515625 1.571875 -4.3828125 1.09375 C-2 0 -2 0 0 0 Z " fill="#B3382C" transform="translate(201,138)"/>
<path d="M0 0 C4.18343269 0.59763324 8.12034244 1.28573271 12 3 C12.875 5.125 12.875 5.125 13 7 C7.25 5.125 7.25 5.125 5 4 C5 3.34 5 2.68 5 2 C3.35 1.67 1.7 1.34 0 1 C0 0.67 0 0.34 0 0 Z " fill="#B8392C" transform="translate(179,362)"/>
<path d="M0 0 C0.33 0.66 0.66 1.32 1 2 C-0.92333011 6.06036357 -3.40069448 8.37347975 -7 11 C-7.66 10.67 -8.32 10.34 -9 10 C-6.03 6.7 -3.06 3.4 0 0 Z " fill="#A02F26" transform="translate(158,168)"/>
<path d="M0 0 C1.32 0.33 2.64 0.66 4 1 C3.01 1.33 2.02 1.66 1 2 C1 2.66 1 3.32 1 4 C-4.41176471 8 -4.41176471 8 -7 8 C-7 7.01 -7 6.02 -7 5 C-2.77777778 2 -2.77777778 2 0 2 C0 1.34 0 0.68 0 0 Z " fill="#B33730" transform="translate(333,360)"/>
<path d="M0 0 C1.73745313 2.65728125 2.00831972 3.89600355 1.75 7.125 C1 10 1 10 -1 12 C-1.99 12 -2.98 12 -4 12 C-3.67 10.35 -3.34 8.7 -3 7 C-2.34 7 -1.68 7 -1 7 C-0.67 4.69 -0.34 2.38 0 0 Z " fill="#651A19" transform="translate(376,304)"/>
<path d="M0 0 C1.32 0.66 2.64 1.32 4 2 C2.54744301 5.82946843 0.57104439 7.12050295 -3 9 C-3 7.68 -3 6.36 -3 5 C-2.01 4.67 -1.02 4.34 0 4 C0 2.68 0 1.36 0 0 Z " fill="#BF3729" transform="translate(351,340)"/>
<path d="M0 0 C1.32 0 2.64 0 4 0 C4 0.99 4 1.98 4 3 C5.65 3 7.3 3 9 3 C8.01 3.99 7.02 4.98 6 6 C3.5625 5.25 3.5625 5.25 1 4 C0.1875 1.875 0.1875 1.875 0 0 Z " fill="#862320" transform="translate(200,373)"/>
<path d="M0 0 C0.66 0 1.32 0 2 0 C4.81532819 5.04140164 6.5188509 9.22621075 7 15 C4.90145927 12.90145927 4.11498542 11.32023279 2.9375 8.625 C2.59589844 7.85414063 2.25429688 7.08328125 1.90234375 6.2890625 C1.07931782 4.20121316 0.48453743 2.18791128 0 0 Z " fill="#E24E41" transform="translate(299,283)"/>
<path d="M0 0 C1.1484375 1.734375 1.1484375 1.734375 2 4 C1.1015625 6.140625 1.1015625 6.140625 -0.375 8.25 C-0.85710937 8.95640625 -1.33921875 9.6628125 -1.8359375 10.390625 C-2.22007812 10.92171875 -2.60421875 11.4528125 -3 12 C-4 10 -4 10 -3.4765625 7.87109375 C-3.05503906 6.66646484 -3.05503906 6.66646484 -2.625 5.4375 C-2.34914062 4.63183594 -2.07328125 3.82617188 -1.7890625 2.99609375 C-1 1 -1 1 0 0 Z " fill="#E34737" transform="translate(131,225)"/>
<path d="M0 0 C4.97093824 0.41153737 9.44508386 0.79600832 14 3 C10.52487282 4.15837573 8.86329714 3.77265943 5.3125 3.0625 C4.31863281 2.86785156 3.32476562 2.67320312 2.30078125 2.47265625 C1.54152344 2.31667969 0.78226562 2.16070312 0 2 C0 1.34 0 0.68 0 0 Z " fill="#AF3529" transform="translate(294,134)"/>
<path d="M0 0 C0.66 0 1.32 0 2 0 C1.67 1.98 1.34 3.96 1 6 C1.66 6 2.32 6 3 6 C3 6.99 3 7.98 3 9 C2.34 9 1.68 9 1 9 C1 9.99 1 10.98 1 12 C0.34 12 -0.32 12 -1 12 C-1.02712066 10.56260487 -1.04645067 9.12506137 -1.0625 7.6875 C-1.07410156 6.88699219 -1.08570313 6.08648437 -1.09765625 5.26171875 C-1 3 -1 3 0 0 Z " fill="#872925" transform="translate(378,299)"/>
<path d="M0 0 C1.32 0.66 2.64 1.32 4 2 C3.34 2.66 2.68 3.32 2 4 C2.99 4.33 3.98 4.66 5 5 C5 5.66 5 6.32 5 7 C2.69 7 0.38 7 -2 7 C-1.34 4.69 -0.68 2.38 0 0 Z " fill="#B5291A" transform="translate(329,146)"/>
<path d="M0 0 C0.66 0.33 1.32 0.66 2 1 C1.49339844 1.90492188 1.49339844 1.90492188 0.9765625 2.828125 C0.53054688 3.62734375 0.08453125 4.4265625 -0.375 5.25 C-0.81585938 6.03890625 -1.25671875 6.8278125 -1.7109375 7.640625 C-2.85747823 9.73914197 -3.94649552 11.8536077 -5 14 C-4.67 11.36 -4.34 8.72 -4 6 C-3.34 6 -2.68 6 -2 6 C-1.855625 5.195625 -1.71125 4.39125 -1.5625 3.5625 C-1 1 -1 1 0 0 Z " fill="#FFE2D9" transform="translate(287,238)"/>
<path d="M0 0 C1.66666667 0 3.33333333 0 5 0 C3.80100302 3.0831351 2.52299523 6.06279492 1 9 C-0.06546953 5.8035914 -0.07427838 3.34252724 0 0 Z " fill="#FEE7DE" transform="translate(290,226)"/>
<path d="M0 0 C0.66 0.33 1.32 0.66 2 1 C0.35 4.63 -1.3 8.26 -3 12 C-4.10191901 7.59232396 -3.58706842 6.1077065 -2 2 C-1.34 2 -0.68 2 0 2 C0 1.34 0 0.68 0 0 Z " fill="#FEE3D7" transform="translate(299,214)"/>
<path d="M0 0 C0.66 0.33 1.32 0.66 2 1 C1.67 2.32 1.34 3.64 1 5 C0.360625 5.12375 -0.27875 5.2475 -0.9375 5.375 C-1.9584375 5.684375 -1.9584375 5.684375 -3 6 C-3.33 6.66 -3.66 7.32 -4 8 C-4.66 8 -5.32 8 -6 8 C-5.65120368 4.74456771 -4.97866739 3.98126893 -2.4375 1.75 C-1.633125 1.1725 -0.82875 0.595 0 0 Z " fill="#E24331" transform="translate(153,176)"/>
<path d="M0 0 C3.465 1.98 3.465 1.98 7 4 C6.01 4.495 6.01 4.495 5 5 C4.67 5.66 4.34 6.32 4 7 C3.34 6.67 2.68 6.34 2 6 C2 5.34 2 4.68 2 4 C1.01 3.67 0.02 3.34 -1 3 C-0.67 2.01 -0.34 1.02 0 0 Z " fill="#6A1C1D" transform="translate(341,151)"/>
<path d="M0 0 C0.33 0.66 0.66 1.32 1 2 C4.58646443 3.74199701 8.06693147 4.45119974 12 5 C12 5.33 12 5.66 12 6 C3.02521008 6.29915966 3.02521008 6.29915966 0 4 C-0.33 3.01 -0.66 2.02 -1 1 C-0.67 0.67 -0.34 0.34 0 0 Z " fill="#FEE2D8" transform="translate(268,335)"/>
<path d="M0 0 C0.99 0 1.98 0 3 0 C2.25 7.75 2.25 7.75 0 10 C0 6.7 0 3.4 0 0 Z " fill="#A02D22" transform="translate(385,281)"/>
<path d="M0 0 C1.98 0.99 1.98 0.99 4 2 C4.1875 4.375 4.1875 4.375 4 7 C3.01 7.66 2.02 8.32 1 9 C0.67 6.03 0.34 3.06 0 0 Z " fill="#EB4D3D" transform="translate(320,171)"/>
<path d="M0 0 C1.67542976 0.28604898 3.34385343 0.61781233 5 1 C5 1.99 5 2.98 5 4 C3.68 4.33 2.36 4.66 1 5 C0.34 3.68 -0.32 2.36 -1 1 C-0.67 0.67 -0.34 0.34 0 0 Z " fill="#E53623" transform="translate(299,139)"/>
<path d="M0 0 C4.29 0.66 8.58 1.32 13 2 C12.67 2.66 12.34 3.32 12 4 C3.42857143 3 3.42857143 3 0 2 C0 1.34 0 0.68 0 0 Z " fill="#EF4833" transform="translate(296,136)"/>
<path d="M0 0 C0.33 0.99 0.66 1.98 1 3 C-2.96 2.67 -6.92 2.34 -11 2 C-11 1.67 -11 1.34 -11 1 C-7.26562152 0.12132271 -3.83225427 -0.08912219 0 0 Z " fill="#C53A2C" transform="translate(270,129)"/>
<path d="M0 0 C2.31 0 4.62 0 7 0 C4.14693203 2.32472205 1.45925163 3.7508258 -2 5 C-2 4.01 -2 3.02 -2 2 C-1.34 2 -0.68 2 0 2 C0 1.34 0 0.68 0 0 Z " fill="#C03A2E" transform="translate(315,371)"/>
<path d="M0 0 C0.99 0.33 1.98 0.66 3 1 C3 2.65 3 4.3 3 6 C2.01 6 1.02 6 0 6 C-0.33 6.99 -0.66 7.98 -1 9 C-1.66 8.67 -2.32 8.34 -3 8 C-2.01 5.36 -1.02 2.72 0 0 Z " fill="#FDE5DD" transform="translate(257,200)"/>
<path d="M0 0 C0 0.66 0 1.32 0 2 C-0.66 2 -1.32 2 -2 2 C-2 2.99 -2 3.98 -2 5 C-5 4 -5 4 -7 1 C-4 0 -4 0 0 0 Z " fill="#F24135" transform="translate(218,376)"/>
<path d="M0 0 C0.99 0 1.98 0 3 0 C3.66 1.98 4.32 3.96 5 6 C4.01 6.495 4.01 6.495 3 7 C3 6.01 3 5.02 3 4 C2.01 3.67 1.02 3.34 0 3 C0 2.01 0 1.02 0 0 Z " fill="#E3574D" transform="translate(241,274)"/>
<path d="M0 0 C0.33 0.99 0.66 1.98 1 3 C1.66 3 2.32 3 3 3 C2.67 3.99 2.34 4.98 2 6 C-0.0625 6.6875 -0.0625 6.6875 -2 7 C-1.125 1.125 -1.125 1.125 0 0 Z " fill="#952C27" transform="translate(144,185)"/>
<path d="M0 0 C0.66 1.32 1.32 2.64 2 4 C-2.455 4.495 -2.455 4.495 -7 5 C-4.63707344 2.47411298 -3.33537489 1.11179163 0 0 Z " fill="#B53429" transform="translate(188,144)"/>
<path d="M0 0 C3.63 0.33 7.26 0.66 11 1 C11 1.33 11 1.66 11 2 C7.7 2.33 4.4 2.66 1 3 C0.67 2.01 0.34 1.02 0 0 Z " fill="#4C1C1E" transform="translate(271,126)"/>
<path d="M0 0 C0.66 0 1.32 0 2 0 C2.33 1.65 2.66 3.3 3 5 C1.35 5.33 -0.3 5.66 -2 6 C-1.125 1.125 -1.125 1.125 0 0 Z " fill="#EA4C39" transform="translate(245,280)"/>
<path d="M0 0 C0.99 0 1.98 0 3 0 C2.37240135 2.92879371 1.41377341 5.36095629 0 8 C-1.125 6.25 -1.125 6.25 -2 4 C-1.125 1.75 -1.125 1.75 0 0 Z " fill="#511C1B" transform="translate(132,209)"/>
<path d="M0 0 C4.62 0 9.24 0 14 0 C14 0.33 14 0.66 14 1 C12.75283203 1.09087891 12.75283203 1.09087891 11.48046875 1.18359375 C9.85044922 1.30927734 9.85044922 1.30927734 8.1875 1.4375 C7.10855469 1.51871094 6.02960938 1.59992188 4.91796875 1.68359375 C1.94010095 1.90212461 1.94010095 1.90212461 -1 3 C-0.67 2.01 -0.34 1.02 0 0 Z " fill="#DF4F42" transform="translate(191,170)"/>
<path d="M0 0 C0.66 0 1.32 0 2 0 C1.71848913 1.31471568 1.42446661 2.62675767 1.125 3.9375 C0.96257812 4.66839844 0.80015625 5.39929688 0.6328125 6.15234375 C0 8 0 8 -2 9 C-2.33 7.35 -2.66 5.7 -3 4 C-2.34 4 -1.68 4 -1 4 C-0.67 2.68 -0.34 1.36 0 0 Z " fill="#D64234" transform="translate(375,302)"/>
<path d="M0 0 C0.625 1.8125 0.625 1.8125 1 4 C0.01 5.485 0.01 5.485 -1 7 C-1.66 7 -2.32 7 -3 7 C-3.1875 4.625 -3.1875 4.625 -3 2 C-2.01 1.34 -1.02 0.68 0 0 Z " fill="#9D3329" transform="translate(384,293)"/>
<path d="M0 0 C1.99097846 2.98646769 2.94124926 5.59687262 4 9 C2.68 8.34 1.36 7.68 0 7 C0 4.69 0 2.38 0 0 Z " fill="#FCDBCE" transform="translate(285,256)"/>
<path d="M0 0 C3.08089673 2.77280706 4.68775452 5.06326356 6 9 C4.68 8.67 3.36 8.34 2 8 C1.34 5.36 0.68 2.72 0 0 Z " fill="#A63327" transform="translate(366,181)"/>
<path d="M0 0 C0 0.66 0 1.32 0 2 C-1.875 3.0625 -1.875 3.0625 -4 4 C-4.66 3.67 -5.32 3.34 -6 3 C-6 2.01 -6 1.02 -6 0 C-3 -1 -3 -1 0 0 Z " fill="#AD3124" transform="translate(349,160)"/>
<path d="M0 0 C0.66 0.33 1.32 0.66 2 1 C0.875 2.5 0.875 2.5 -1 4 C-4.1875 4.1875 -4.1875 4.1875 -7 4 C-4.61426621 2.10786631 -2.92824652 0.97608217 0 0 Z " fill="#AB2C26" transform="translate(208,134)"/>
<path d="M0 0 C1.65 0 3.3 0 5 0 C5 0.66 5 1.32 5 2 C3.03852126 3.38938077 1.03833424 4.7260411 -1 6 C-1 5.01 -1 4.02 -1 3 C-0.34 3 0.32 3 1 3 C0.67 2.01 0.34 1.02 0 0 Z " fill="#A43027" transform="translate(339,353)"/>
<path d="M0 0 C0.66 0 1.32 0 2 0 C2.33 1.65 2.66 3.3 3 5 C1.68 5.33 0.36 5.66 -1 6 C-0.67 4.02 -0.34 2.04 0 0 Z " fill="#C83A2B" transform="translate(133,219)"/>
<path d="M0 0 C1.88343932 3.76687864 2.22057835 5.02958963 2 9 C1.01 9.33 0.02 9.66 -1 10 C-0.67 6.7 -0.34 3.4 0 0 Z " fill="#F34635" transform="translate(379,207)"/>
<path d="M0 0 C1.99097846 2.98646769 2.94124926 5.59687262 4 9 C3.01 9.33 2.02 9.66 1 10 C0.67 6.7 0.34 3.4 0 0 Z " fill="#A12A22" transform="translate(376,198)"/>
</svg>
